<?xml version="1.0" standalone="no"?>
<!DOCTYPE svg PUBLIC "-//W3C//DTD SVG 20010904//EN"
 "http://www.w3.org/TR/2001/REC-SVG-20010904/DTD/svg10.dtd">
<svg version="1.0" xmlns="http://www.w3.org/2000/svg"
 width="1001.000000pt" height="1000.000000pt" viewBox="0 0 1001.000000 1000.000000"
 preserveAspectRatio="xMidYMid meet">

<g transform="translate(0.000000,1000.000000) scale(0.100000,-0.100000)"
fill="#60a5fa" stroke="#60a5fa">
<path d="M4785 8264 c-698 -55 -1338 -310 -1859 -742 -896 -744 -1328 -1893
-1145 -3046 213 -1336 1245 -2410 2574 -2680 234 -47 363 -60 640 -60 265 -1
367 7 585 45 1221 213 2233 1126 2570 2320 86 306 122 569 122 899 0 658 -178
1255 -536 1800 -525 798 -1363 1319 -2327 1446 -109 14 -520 26 -624 18z m620
-498 c661 -108 1211 -401 1653 -880 386 -418 630 -944 714 -1536 20 -146 17
-585 -5 -730 -79 -509 -266 -946 -577 -1350 -96 -125 -349 -376 -475 -471
-410 -311 -836 -491 -1340 -566 -169 -25 -591 -25 -760 0 -406 60 -771 193
-1102 401 -997 626 -1491 1789 -1252 2947 176 854 782 1606 1584 1967 268 120
548 195 885 236 89 10 579 -3 675 -18z"/>
<path d="M4990 7503 c-868 -89 -1623 -612 -2005 -1388 -40 -82 -90 -195 -110
-250 -81 -218 -136 -495 -151 -747 l-7 -118 -223 0 -224 0 0 -47 c1 -182 82
-457 191 -648 354 -622 1096 -908 1774 -684 565 186 976 708 1021 1293 l7 86
253 0 254 0 0 -45 c0 -25 -5 -89 -11 -143 -104 -949 -938 -1648 -1888 -1581
-450 31 -844 216 -1162 546 -120 125 -107 97 33 -72 319 -382 788 -633 1301
-696 125 -15 452 -7 565 15 647 121 1170 510 1455 1081 125 252 192 501 212
798 l7 97 249 0 249 0 0 -89 c0 -195 -56 -484 -135 -696 -79 -214 -223 -469
-364 -645 -232 -289 -574 -544 -918 -685 -263 -107 -499 -155 -799 -162 -335
-9 -594 35 -892 149 -309 119 -575 299 -829 561 -70 73 -115 114 -99 92 373
-513 933 -869 1552 -989 199 -38 344 -49 558 -43 211 6 338 23 526 68 1067
260 1856 1212 1907 2302 l6 137 229 0 230 0 -7 68 c-27 277 -109 513 -254 732
-70 106 -239 282 -351 366 -197 147 -443 245 -697 279 -380 51 -779 -52 -1083
-279 -112 -84 -281 -260 -351 -366 -145 -220 -228 -457 -254 -732 l-7 -68
-254 0 -255 0 6 68 c3 37 8 94 11 127 29 331 196 709 433 980 241 277 608 490
968 565 607 125 1231 -72 1659 -523 91 -96 83 -76 -20 53 -531 658 -1448 909
-2244 614 -625 -231 -1090 -748 -1253 -1393 -34 -132 -59 -311 -59 -417 l0
-74 -255 0 -255 0 0 58 c0 98 20 271 47 402 139 687 605 1287 1240 1596 866
422 1912 250 2594 -426 64 -63 135 -137 159 -165 55 -64 42 -43 -46 70 -410
533 -1014 877 -1684 960 -113 14 -447 19 -550 8z"/>
</g>
</svg>
