<?xml version="1.0" encoding="utf-8"?>
<svg version="1.1" xmlns="http://www.w3.org/2000/svg"
     viewBox="0 0 1000 1000"
     xml:space="preserve">
<style type="text/css">
	.st0{fill:#60a5fa;}
</style>
<g>
	<path class="st0" d="M289.2,180.5C131,180.5,2.5,308.7,2.5,466.9s128.3,286.7,286.7,286.7s286.7-128.3,286.7-286.7
		S447.3,180.5,289.2,180.5z M289.2,716.4C149.7,716.2,36.7,604.3,36.7,466.9s113.1-249.4,252.5-249.4s252.5,111.9,252.5,249.4
		C541.7,604.8,428.6,716.4,289.2,716.4z"/>
	<path class="st0" d="M997.4,670l-497.9,20.3L395.4,493.8C587,679.6,1004.3,647.1,997.4,670L997.4,670z M114,834.8
		c-35.5-31.4-10.9-134.6,72-271.5C358.6,277.8,595.6,89.7,595.6,89.7c-181.5,108.8-284.9,217.7-372.9,326
		C41.3,638.8-18.1,849.2,58.5,902.8c32.4,22.8,142.7-2,230.7-135.3
		C239.5,812.1,153,868.9,114,834.4L114,834.8z"/>
</g>
</svg>
